<?xml version="1.0" encoding="UTF-8" standalone="no"?>
<svg
   xmlns:dc="http://purl.org/dc/elements/1.1/"
   xmlns:cc="http://creativecommons.org/ns#"
   xmlns:rdf="http://www.w3.org/1999/02/22-rdf-syntax-ns#"
   xmlns:svg="http://www.w3.org/2000/svg"
   xmlns="http://www.w3.org/2000/svg"
   height="1792"
   viewBox="0 0 1792 1792"
   width="1792"
   version="1.1"
   id="svg4551">
  <metadata
     id="metadata4557">
    <rdf:RDF>
      <cc:Work
         rdf:about="">
        <dc:format>image/svg+xml</dc:format>
        <dc:type
           rdf:resource="http://purl.org/dc/dcmitype/StillImage" />
        <dc:title />
      </cc:Work>
    </rdf:RDF>
  </metadata>
  <defs
     id="defs4555" />
  <path
     d="M 1216,1184 V 608 q 0,-14 -9,-23 -9,-9 -23,-9 H 608 q -14,0 -23,9 -9,9 -9,23 v 576 q 0,14 9,23 9,9 23,9 h 576 q 14,0 23,-9 9,-9 9,-23 z m 448,-288 q 0,209 -103,385.5 Q 1458,1458 1281.5,1561 1105,1664 896,1664 687,1664 510.5,1561 334,1458 231,1281.5 128,1105 128,896 128,687 231,510.5 334,334 510.5,231 687,128 896,128 1105,128 1281.5,231 1458,334 1561,510.5 1664,687 1664,896 Z"
     id="path4549"
     style="fill:#ffffff;fill-opacity:1" />
</svg>
